<svg width="56" height="40" viewBox="0 0 56 40" fill="none" xmlns="http://www.w3.org/2000/svg">
<path d="M26.9208 27.0997C26.9208 33.9401 21.9702 39.4853 14.535 39.4853C7.09981 39.4853 2.14941 33.9401 2.14941 27.0997C2.14941 20.2593 7.09981 15.7911 14.535 15.7911C21.9702 15.7911 26.9208 20.2593 26.9208 27.0997Z" fill="#F740FF"/>
<path d="M14.5356 0.713135L6.45801 13.0987L16.1511 19.5608L27.9981 0.713135H14.5356Z" fill="#F740FF"/>
<ellipse cx="9.6426" cy="14.151" rx="3.23102" ry="14.3333" transform="rotate(28.3148 9.6426 14.151)" fill="#F740FF"/>
<path d="M54.9227 27.0997C54.9227 33.9401 49.9721 39.4853 42.5369 39.4853C35.1018 39.4853 30.1514 33.9401 30.1514 27.0997C30.1514 20.2593 35.1018 15.7911 42.5369 15.7911C49.9721 15.7911 54.9227 20.2593 54.9227 27.0997Z" fill="#F740FF"/>
<path d="M42.5375 0.713135L34.46 13.0987L44.153 19.5608L56.0001 0.713135H42.5375Z" fill="#F740FF"/>
<ellipse cx="37.6446" cy="14.151" rx="3.23102" ry="14.3333" transform="rotate(28.3148 37.6446 14.151)" fill="#F740FF"/>
</svg>
